<?xml version="1.0" standalone="no"?>
<!DOCTYPE svg PUBLIC "-//W3C//DTD SVG 20010904//EN"
 "http://www.w3.org/TR/2001/REC-SVG-20010904/DTD/svg10.dtd">
<svg version="1.0" xmlns="http://www.w3.org/2000/svg"
 width="891.000000pt" height="673.000000pt" viewBox="0 0 891.000000 673.000000"
 preserveAspectRatio="xMidYMid meet">

<g transform="translate(0.000000,673.000000) scale(0.100000,-0.100000)"
fill="#000000" stroke="none">
<path d="M2343 5753 l-153 -4 0 -311 0 -311 301 6 c166 3 305 9 310 14 5 5 8
139 7 309 l-3 299 -155 0 c-85 1 -224 -1 -307 -2z"/>
<path d="M3900 5688 c-35 -5 -69 -13 -75 -18 -20 -17 -139 -30 -320 -36 -189
-7 -242 -1 -359 38 -36 12 -61 15 -65 10 -3 -6 -6 -291 -6 -634 l0 -623 629 2
c346 1 633 6 637 10 6 6 14 1094 9 1251 0 15 -345 15 -450 0z"/>
<path d="M4760 5393 c0 -396 10 -665 24 -660 6 2 11 10 12 18 2 24 16 49 24
44 5 -3 11 9 15 26 4 18 15 33 25 36 12 3 20 18 24 44 4 27 10 38 18 33 8 -5
9 -2 5 10 -5 12 1 20 18 28 14 6 24 16 22 22 -2 6 2 17 10 24 7 8 10 18 7 24
-4 7 -2 8 4 4 7 -4 12 -1 12 8 0 19 16 21 24 4 3 -7 4 -1 2 14 -2 17 1 25 7
21 6 -4 8 0 4 9 -3 10 3 23 19 34 15 12 24 29 24 46 0 16 5 28 11 28 5 0 7 6
3 13 -4 6 -3 8 1 4 12 -11 15 -39 6 -52 -4 -5 -7 -16 -7 -24 1 -18 26 -27 26
-9 4 93 44 208 74 208 8 0 16 7 20 15 7 20 -8 19 -25 -1 -7 -8 -21 -13 -31
-11 -10 3 -21 1 -24 -4 -6 -11 -94 -2 -108 11 -4 4 1 11 13 15 20 6 25 16 22
40 0 6 15 17 34 24 31 11 35 16 35 49 0 20 5 44 10 52 9 15 13 16 50 19 11 0
19 4 19 9 -3 20 2 31 14 27 25 -9 82 11 81 28 -1 12 7 17 30 19 34 1 50 3 141
15 l60 7 -45 8 c-25 4 -195 11 -377 14 l-333 7 0 -300z"/>
<path d="M6805 5671 c-17 -10 -48 -24 -70 -31 -52 -17 -149 -61 -155 -70 -3
-4 -21 -16 -40 -26 -19 -11 -46 -27 -60 -36 -14 -8 -58 -36 -97 -62 -77 -49
-88 -69 -54 -100 11 -10 22 -38 26 -65 3 -26 10 -53 15 -61 5 -8 5 -21 -1 -31
-6 -11 -4 -32 6 -59 13 -37 13 -45 0 -70 -8 -16 -19 -32 -25 -35 -5 -3 -10
-17 -10 -31 0 -14 -7 -32 -16 -41 -11 -12 -14 -26 -8 -57 8 -51 11 -56 29 -50
9 4 26 -6 42 -25 15 -17 32 -31 38 -31 5 0 16 -14 24 -30 10 -24 16 -28 26
-20 10 8 15 8 20 0 4 -7 17 -9 30 -6 15 4 25 1 29 -10 3 -8 2 -12 -4 -9 -6 3
-10 -1 -10 -10 0 -11 5 -15 15 -11 16 6 32 -34 21 -52 -3 -5 4 -18 16 -28 12
-11 18 -13 14 -6 -4 6 -3 12 3 12 5 0 14 -6 18 -14 4 -8 17 -15 28 -18 17 -3
20 -12 21 -58 1 -74 3 -82 12 -76 5 3 15 -6 22 -19 7 -14 17 -25 21 -25 4 0 7
-16 6 -36 -1 -19 4 -38 10 -42 6 -4 13 -29 16 -55 6 -58 12 -67 24 -35 5 15
10 -31 13 -132 3 -85 6 66 7 335 3 667 13 979 34 1031 18 47 28 94 19 99 -4 3
-4 22 1 42 18 78 4 91 -56 54z"/>
<path d="M5395 5379 c-4 -5 -18 -14 -31 -19 -13 -5 -24 -14 -24 -20 0 -14 16
-12 29 4 7 8 23 17 36 20 14 4 25 11 25 16 0 13 -27 13 -35 -1z"/>
<path d="M5306 5313 c-6 -14 -5 -15 5 -6 7 7 10 15 7 18 -3 3 -9 -2 -12 -12z"/>
<path d="M6186 5322 c-5 -9 -106 -77 -256 -174 -30 -20 -68 -48 -85 -63 -33
-30 -29 -30 57 1 65 22 93 13 119 -38 17 -34 19 -46 10 -60 -13 -20 -7 -38 12
-38 22 0 39 -38 26 -61 -9 -17 -7 -25 12 -45 21 -23 24 -23 33 -7 5 10 19 27
30 39 37 36 85 127 106 200 15 52 9 179 -10 219 -15 30 -43 44 -54 27z m-86
-356 c0 -9 -30 -14 -35 -6 -4 6 3 10 14 10 12 0 21 -2 21 -4z m50 -30 c0 -3
-11 -17 -25 -32 -18 -19 -25 -23 -25 -11 0 17 26 47 41 47 5 0 9 -2 9 -4z"/>
<path d="M5275 5269 c-10 -30 -2 -32 12 -3 6 13 7 24 3 24 -5 0 -12 -9 -15
-21z"/>
<path d="M5062 5080 c-7 -11 -8 -20 -3 -20 9 0 24 30 18 36 -1 2 -8 -6 -15
-16z"/>
<path d="M5777 5023 c-3 -5 -2 -15 2 -22 5 -7 11 -9 14 -4 3 5 2 15 -2 22 -5
7 -11 9 -14 4z"/>
<path d="M2548 4984 c-3 -3 -84 -7 -180 -8 l-173 -2 -3 -308 -2 -309 298 5
c164 2 303 8 310 12 9 5 12 84 12 306 0 262 -2 299 -16 304 -20 8 -239 8 -246
0z"/>
<path d="M5632 4888 c-14 -14 -16 -64 -3 -72 21 -14 46 28 42 72 -1 15 -23 16
-39 0z"/>
<path d="M5530 4850 c0 -10 -6 -23 -14 -27 -9 -5 -11 -15 -5 -28 6 -17 8 -17
8 -2 1 9 10 26 21 37 24 24 26 40 5 40 -8 0 -15 -9 -15 -20z"/>
<path d="M5855 4850 c-3 -5 1 -10 9 -10 9 0 16 5 16 10 0 6 -4 10 -9 10 -6 0
-13 -4 -16 -10z"/>
<path d="M6296 4842 c-3 -5 1 -9 9 -9 8 0 12 4 9 9 -3 4 -7 8 -9 8 -2 0 -6 -4
-9 -8z"/>
<path d="M6248 4809 c-22 -12 -23 -29 -3 -29 8 0 15 -7 15 -16 0 -8 5 -12 11
-8 7 4 8 9 0 17 -7 7 -7 16 0 29 11 20 3 23 -23 7z"/>
<path d="M5385 4740 c-3 -5 -2 -10 4 -10 5 0 13 5 16 10 3 6 2 10 -4 10 -5 0
-13 -4 -16 -10z"/>
<path d="M5380 4676 c0 -16 58 -66 77 -66 7 0 13 -4 13 -10 0 -5 5 -10 10 -10
6 0 10 7 10 15 0 8 -4 15 -10 15 -5 0 -10 6 -10 14 0 15 -58 56 -79 56 -6 0
-11 -6 -11 -14z"/>
<path d="M5215 4610 c-3 -5 -1 -10 4 -10 6 0 11 5 11 10 0 6 -2 10 -4 10 -3 0
-8 -4 -11 -10z"/>
<path d="M5170 4580 c-13 -11 -27 -20 -31 -20 -10 0 -36 -21 -82 -62 -17 -16
-34 -28 -39 -28 -5 0 -46 -25 -91 -56 -87 -60 -166 -136 -148 -142 25 -8 47
-75 57 -172 7 -61 11 -71 29 -64 17 7 21 34 5 34 -7 0 -7 7 0 21 7 11 9 27 6
35 -7 17 10 50 41 78 25 24 44 106 24 106 -7 0 2 15 18 33 23 24 27 33 16 35
-21 5 -19 23 4 29 11 3 22 11 25 19 3 8 12 14 19 14 8 0 41 27 75 60 33 33 69
60 80 60 11 0 22 7 25 15 10 23 -9 26 -33 5z"/>
<path d="M5506 4592 c-2 -4 -1 -14 5 -22 7 -12 9 -10 9 8 0 23 -5 28 -14 14z"/>
<path d="M5409 4269 c-62 -9 -87 -24 -95 -55 -8 -33 26 -70 79 -86 34 -10 41
-10 52 5 7 9 22 17 34 17 28 0 27 8 -6 42 -23 24 -25 31 -15 52 14 31 8 34
-49 25z"/>
<path d="M6835 4034 c-4 -133 -11 -221 -16 -213 -5 8 -9 36 -9 63 0 80 -9 47
-11 -42 -2 -60 -6 -82 -16 -82 -7 0 -13 7 -13 16 0 8 -4 13 -8 10 -5 -3 -43
22 -85 55 -84 64 -114 72 -148 38 -14 -14 -39 -24 -68 -27 -27 -3 -59 -15 -78
-29 -40 -30 -79 -25 -127 18 l-33 29 -79 -15 c-58 -12 -86 -22 -106 -42 -29
-28 -33 -28 -188 -22 -25 1 -65 -6 -90 -15 -64 -25 -258 -20 -288 7 -15 13
-41 20 -94 22 -52 3 -66 1 -50 -5 13 -6 21 -14 18 -19 -6 -10 -91 -26 -118
-22 -10 1 -18 -2 -18 -7 0 -5 -27 -9 -61 -10 -33 0 -63 -2 -66 -5 -2 -3 -19 1
-38 8 -18 8 -35 11 -39 8 -3 -4 -6 1 -6 10 0 12 -9 17 -27 17 -27 1 -103 34
-94 42 8 6 -23 97 -31 92 -4 -3 -8 -43 -8 -89 0 -71 -3 -86 -18 -94 -10 -6
-24 -6 -32 -1 -24 15 -30 1 -30 -71 l0 -69 48 0 c26 0 54 5 62 10 11 7 12 10
2 10 -8 0 -12 9 -10 23 3 19 10 23 63 28 81 7 272 4 550 -11 127 -7 237 -12
247 -12 9 0 19 -9 22 -21 5 -17 8 -19 15 -8 7 11 9 11 13 0 4 -12 100 -15 539
-19 294 -3 540 -3 547 -1 10 3 12 15 8 45 -3 23 -9 172 -12 331 -3 160 -7 291
-9 293 -1 2 -6 -99 -10 -224z m-18 -296 c-3 -7 -5 -2 -5 12 0 14 2 19 5 13 2
-7 2 -19 0 -25z"/>
<path d="M6270 4208 c-23 -48 -25 -64 -8 -74 7 -4 8 -3 4 4 -4 7 -2 12 3 12 6
0 21 10 32 21 l22 22 -5 -27 c-4 -20 -1 -26 11 -26 22 0 41 19 41 41 0 17 -53
69 -71 69 -4 0 -18 -19 -29 -42z"/>
<path d="M5522 4139 c6 -40 84 -56 279 -58 95 -1 170 1 165 6 -4 4 -42 9 -84
10 -42 1 -113 7 -157 13 -44 6 -99 13 -122 16 -23 3 -47 12 -54 20 -17 21 -31
17 -27 -7z"/>
<path d="M4880 4139 c0 -5 5 -7 10 -4 6 3 10 8 10 11 0 2 -4 4 -10 4 -5 0 -10
-5 -10 -11z"/>
<path d="M5111 4096 c-8 -9 -11 -19 -7 -23 9 -9 29 13 24 27 -2 8 -8 7 -17 -4z"/>
<path d="M2250 4013 c0 -37 15 -42 32 -12 17 29 17 29 -7 29 -17 0 -25 -6 -25
-17z"/>
<path d="M5148 3999 c-10 -5 -18 -16 -18 -24 0 -13 23 -14 99 -5 2 0 -4 9 -14
20 -20 22 -41 25 -67 9z"/>
<path d="M2305 3963 c-4 -10 -8 -88 -9 -173 -3 -223 -4 -230 -19 -224 -17 6
-27 -404 -27 -1132 0 -393 3 -503 13 -505 6 -2 482 -4 1057 -4 l1045 0 0 175
c0 96 -3 364 -7 595 -4 231 -8 538 -9 683 0 169 -4 260 -10 256 -6 -3 -9 -68
-8 -159 0 -88 -3 -161 -9 -172 -7 -12 -8 -34 -2 -58 16 -70 22 -278 11 -385
-44 -429 -386 -784 -829 -860 -204 -36 -395 -20 -564 45 -163 63 -254 121
-360 231 -149 155 -224 291 -274 499 -23 96 -22 331 1 440 27 129 144 354 233
448 20 20 31 37 25 37 -7 0 -16 -6 -20 -14 -7 -12 -12 -12 -33 -1 -14 8 -20
14 -15 15 6 0 10 20 9 45 -1 35 3 48 17 56 11 5 19 18 19 29 0 10 5 22 10 25
6 3 10 17 10 30 0 18 7 25 30 30 36 8 39 21 6 29 -35 9 -153 26 -222 32 -53 5
-62 4 -69 -13z m185 -313 c0 -5 -4 -10 -10 -10 -5 0 -10 5 -10 10 0 6 5 10 10
10 6 0 10 -4 10 -10z"/>
<path d="M4332 3708 c1 -16 6 -28 10 -28 11 0 10 22 -2 40 -8 11 -9 9 -8 -12z"/>
<path d="M3650 3546 c0 -8 -9 -18 -20 -21 -23 -7 -26 -21 -6 -28 8 -3 17 -24
21 -46 8 -48 23 -61 42 -36 18 26 17 32 -12 59 -26 24 -32 50 -15 61 6 3 10
10 10 16 0 5 -4 9 -10 9 -5 0 -10 -6 -10 -14z"/>
<path d="M3840 3526 c-5 -15 -10 -33 -10 -41 0 -7 -7 -16 -16 -19 -15 -6 -15
-8 1 -25 15 -17 15 -25 4 -58 -6 -21 -13 -44 -15 -50 -2 -7 -12 -13 -22 -13
-16 0 -19 6 -15 36 2 23 0 33 -7 29 -5 -3 -10 -10 -10 -15 0 -6 -17 -25 -37
-44 l-38 -34 28 -27 c30 -31 34 -45 12 -45 -8 0 -19 -9 -25 -19 -9 -18 -12
-18 -40 -5 -33 17 -38 31 -15 40 12 5 13 10 5 19 -17 21 -81 6 -113 -27 -29
-28 -28 -31 8 -29 25 2 80 -53 72 -72 -8 -22 13 -37 50 -37 31 0 33 2 33 35 0
43 10 44 30 3 23 -50 71 -71 141 -63 70 8 84 29 42 63 -20 16 -35 21 -53 17
-63 -15 -79 -16 -99 -6 -29 16 -29 73 0 102 19 19 30 21 80 16 72 -6 78 0 85
87 6 72 -4 96 -37 96 -22 0 -25 30 -7 60 10 16 10 23 -4 37 -16 15 -18 15 -28
-11z"/>
<path d="M3150 3500 c0 -5 7 -10 16 -10 8 0 12 5 9 10 -3 6 -10 10 -16 10 -5
0 -9 -4 -9 -10z"/>
<path d="M3415 3500 c-9 -15 25 -60 40 -53 21 7 30 44 14 54 -19 12 -46 11
-54 -1z"/>
<path d="M4266 3385 c4 -8 8 -15 10 -15 2 0 4 7 4 15 0 8 -4 15 -10 15 -5 0
-7 -7 -4 -15z"/>
<path d="M3120 3351 c0 -5 7 -14 15 -21 13 -10 15 -9 15 9 0 12 -6 21 -15 21
-8 0 -15 -4 -15 -9z"/>
<path d="M3480 3336 c0 -9 7 -12 20 -9 11 3 20 9 20 14 0 5 -9 9 -20 9 -11 0
-20 -6 -20 -14z"/>
<path d="M3618 3323 c7 -3 16 -2 19 1 4 3 -2 6 -13 5 -11 0 -14 -3 -6 -6z"/>
<path d="M2913 3295 c-3 -9 -3 -18 0 -21 9 -9 48 16 42 27 -9 14 -35 11 -42
-6z"/>
<path d="M2990 3260 c0 -11 -6 -20 -14 -20 -8 0 -23 -16 -35 -36 -26 -44 -26
-47 -1 -39 14 4 20 2 20 -8 0 -20 39 -53 49 -41 14 14 21 137 9 152 -15 18
-28 15 -28 -8z"/>
<path d="M2860 3260 c-12 -8 -11 -10 7 -10 12 0 25 5 28 10 8 13 -15 13 -35 0z"/>
<path d="M6314 3235 c-3 -8 -7 -146 -8 -307 l-1 -293 303 2 c166 1 307 5 313
8 5 4 7 16 3 28 -4 12 -6 83 -4 157 3 74 4 198 5 275 l0 140 -303 3 c-262 2
-303 0 -308 -13z"/>
<path d="M3906 3213 c-12 -12 -6 -33 9 -33 8 0 15 6 15 14 0 17 -14 28 -24 19z"/>
<path d="M3373 3191 c-3 -11 -13 -23 -23 -26 -10 -3 -42 -32 -73 -64 -33 -35
-69 -63 -91 -71 -39 -12 -72 -7 -61 10 10 16 -12 12 -29 -6 -15 -14 -14 -18
14 -44 24 -23 30 -36 30 -70 0 -33 -4 -43 -20 -47 -11 -3 -20 -9 -20 -13 0 -4
-16 -15 -35 -26 -22 -12 -38 -28 -41 -44 -11 -56 -20 -75 -43 -87 -29 -14 -48
-43 -29 -43 7 0 35 11 62 25 62 31 116 93 113 128 -3 34 15 39 23 7 10 -37 57
-102 83 -114 12 -7 23 -20 25 -30 4 -17 3 -18 -19 -2 -41 28 -54 22 -162 -79
-62 -57 -81 -87 -66 -102 17 -17 73 0 84 25 6 13 19 22 31 22 15 0 29 12 43
36 28 46 58 44 86 -9 l20 -37 -35 -33 c-19 -19 -54 -46 -78 -62 -23 -15 -40
-30 -38 -33 8 -8 70 20 83 38 9 12 14 12 24 3 10 -10 10 -18 1 -38 -12 -25
-12 -25 13 -9 14 9 25 20 25 25 0 5 7 9 15 9 19 0 85 -62 85 -79 0 -19 25 -7
29 14 2 10 -3 23 -11 29 -32 24 -69 104 -66 143 3 33 7 38 30 41 38 5 99 -30
155 -88 26 -27 51 -50 56 -50 4 0 7 11 7 25 0 40 54 61 65 25 9 -27 74 -29 76
-2 4 59 1 57 67 65 90 11 127 42 135 111 4 28 9 61 13 73 5 18 1 25 -22 33
-72 28 -107 88 -108 187 -1 74 -13 100 -39 90 -11 -4 -13 -17 -10 -50 4 -35 0
-51 -18 -80 -22 -34 -49 -49 -49 -28 0 5 -8 11 -18 13 -10 3 -18 15 -19 27 -1
13 -14 38 -28 58 -18 22 -28 48 -29 74 -1 34 -4 39 -26 39 -42 1 -134 54 -140
81 -8 31 -40 38 -47 10z m75 -83 c24 -15 46 -28 51 -28 12 0 47 -42 65 -77 22
-44 21 -125 -1 -145 -31 -27 -82 -30 -110 -8 -14 11 -36 20 -49 20 -28 0 -30
6 -9 27 20 20 10 34 -17 24 -18 -6 -22 -16 -22 -59 -1 -44 -6 -56 -35 -86 -19
-20 -43 -36 -53 -36 -15 0 -18 10 -19 68 -2 91 0 104 19 125 14 16 17 16 39 1
45 -29 73 5 34 40 -11 10 -22 28 -25 42 -8 29 -26 32 -26 4 0 -10 -10 -25 -22
-31 -13 -7 -29 -18 -36 -26 -18 -17 -29 -17 -36 3 -12 31 40 84 82 84 11 0 22
12 30 33 12 34 57 67 82 59 8 -3 34 -18 58 -34z m2 -322 c0 -35 -61 -48 -68
-14 -2 11 5 18 20 21 42 8 48 7 48 -7z m-380 -6 c0 -5 -5 -10 -11 -10 -5 0 -7
5 -4 10 3 6 8 10 11 10 2 0 4 -4 4 -10z m694 -22 c9 -12 16 -30 16 -40 0 -33
-33 -86 -64 -102 -17 -9 -39 -22 -49 -28 -15 -11 -20 -10 -35 9 -14 18 -26 21
-73 19 -31 -1 -64 -8 -73 -15 -24 -20 -44 -7 -39 23 5 24 33 38 33 16 0 -5 13
-10 28 -10 34 0 71 23 54 34 -7 4 -12 18 -12 32 0 21 5 24 33 24 17 -1 39 -1
47 0 8 0 26 -1 40 -2 21 -3 27 3 35 30 11 38 37 42 59 10z m98 -53 c15 -34 -1
-52 -31 -36 -24 13 -27 31 -9 49 18 18 27 15 40 -13z m-529 -29 c7 -19 0 -25
-24 -19 -10 3 -19 12 -19 19 0 18 36 18 43 0z"/>
<path d="M4756 3188 c-2 -7 -3 -296 -3 -643 l2 -630 630 4 c452 2 633 7 640
15 7 7 9 230 7 639 l-3 627 -635 0 c-499 0 -635 -3 -638 -12z"/>
<path d="M3147 3092 c-10 -10 -17 -22 -17 -26 0 -12 37 13 44 29 8 21 -7 19
-27 -3z"/>
<path d="M3052 2958 c-21 -21 -15 -40 11 -32 29 9 29 8 21 28 -7 19 -16 20
-32 4z"/>
<path d="M2871 2926 c-8 -9 -11 -19 -7 -23 9 -9 29 13 24 27 -2 8 -8 7 -17 -4z"/>
<path d="M2810 2880 c0 -13 11 -13 30 0 12 8 11 10 -7 10 -13 0 -23 -4 -23
-10z"/>
<path d="M2975 2759 c-4 -6 -5 -13 -2 -16 7 -7 27 6 27 18 0 12 -17 12 -25 -2z"/>
<path d="M6322 2474 c-12 -8 -15 -63 -20 -306 -3 -170 -1 -297 4 -299 5 -2
145 -3 312 -1 l303 3 -2 102 c-2 56 1 191 6 300 7 167 6 200 -6 208 -20 14
-578 7 -597 -7z"/>
<path d="M3292 2239 c2 -7 10 -15 17 -17 8 -3 12 1 9 9 -2 7 -10 15 -17 17 -8
3 -12 -1 -9 -9z"/>
<path d="M3371 2224 c-26 -33 -27 -57 -4 -52 23 4 49 56 35 70 -6 6 -17 0 -31
-18z"/>
<path d="M837 1240 c-5 -19 -14 -20 -326 -20 -279 0 -321 -2 -321 -15 0 -12
14 -15 64 -15 41 0 67 -5 75 -14 8 -9 10 -134 9 -442 l-3 -429 -65 -3 c-36 -2
-69 -7 -74 -13 -6 -5 102 -9 293 -9 210 0 300 3 296 11 -4 6 -38 9 -85 8 -42
-1 -82 1 -89 5 -8 5 -11 82 -11 262 l0 255 78 -3 77 -3 3 -38 c2 -24 8 -37 15
-34 8 2 13 36 15 95 2 77 0 92 -13 92 -11 0 -15 -10 -15 -35 0 -41 -16 -48
-101 -43 l-54 3 0 165 0 165 132 3 131 3 21 -30 c12 -16 21 -32 21 -35 0 -3
16 -30 35 -60 19 -30 35 -60 35 -66 0 -6 8 -10 17 -8 9 2 16 8 14 13 -6 27
-147 255 -157 255 -6 0 -14 -9 -17 -20z m-429 -496 c2 -435 2 -442 -18 -447
-11 -3 -22 -1 -25 3 -8 13 -8 867 0 880 4 6 14 10 23 8 16 -3 17 -43 20 -444z
m158 434 c5 -7 7 -207 4 -448 -4 -377 -7 -435 -20 -436 -40 -1 -40 3 -40 451
0 237 3 435 7 438 11 11 40 8 49 -5z"/>
<path d="M2249 1253 c-1 -5 -1 -12 0 -16 2 -15 -30 -17 -337 -20 -199 -1 -312
-6 -312 -12 0 -5 21 -11 47 -13 27 -1 58 -5 71 -7 l22 -5 0 -440 0 -440 -62 0
c-35 0 -70 -5 -78 -10 -10 -7 112 -9 375 -8 l390 3 67 33 c79 38 122 86 138
153 38 159 -134 299 -259 209 -52 -37 -64 -127 -20 -151 28 -15 45 0 20 18
-31 21 -28 73 5 104 36 34 121 34 158 0 38 -35 56 -83 56 -145 0 -65 -23 -107
-79 -148 -64 -45 -122 -57 -286 -59 l-150 -1 -3 261 -2 261 74 0 75 0 3 -37
c2 -20 9 -38 16 -41 9 -3 12 20 12 92 0 77 -3 96 -14 96 -10 0 -16 -13 -18
-37 l-3 -38 -70 0 -70 0 0 165 0 165 125 3 c69 1 130 -1 136 -5 6 -5 34 -50
63 -100 30 -51 60 -93 67 -93 8 0 14 3 14 7 0 4 -34 64 -76 135 -68 115 -91
144 -95 121z m-431 -493 c1 -234 0 -435 -3 -447 -4 -17 -11 -22 -28 -19 l-22
3 -3 434 c-1 239 0 440 3 447 3 7 15 12 27 10 l23 -3 3 -425z m160 0 c1 -234
0 -434 -2 -445 -5 -21 -41 -31 -51 -15 -8 12 -7 869 1 881 3 6 16 9 27 7 l22
-3 3 -425z"/>
<path d="M6805 1227 c-57 -23 -91 -46 -131 -89 -39 -42 -154 -219 -154 -237 0
-5 -6 -14 -14 -20 -11 -9 -22 0 -57 46 -24 32 -52 67 -61 78 -74 89 -127 162
-125 170 2 6 21 10 43 11 63 1 72 3 78 19 5 13 -29 15 -270 15 -257 0 -275 -1
-272 -17 3 -14 12 -17 39 -16 36 2 38 1 195 -204 88 -114 171 -223 186 -243
105 -136 104 -128 30 -241 -101 -154 -226 -228 -315 -188 -23 11 -38 31 -51
72 -10 31 23 97 53 103 44 9 51 13 51 24 0 15 -37 12 -70 -5 -39 -20 -60 -63
-60 -121 0 -39 5 -51 33 -79 69 -69 172 -54 271 42 45 43 122 151 147 206 7
15 18 27 24 27 12 0 201 -238 212 -266 4 -11 -9 -14 -61 -14 -37 0 -66 -4 -66
-10 0 -6 102 -10 286 -10 187 0 283 3 279 10 -3 5 -25 10 -48 10 -42 0 -43 1
-132 116 -50 64 -143 184 -207 267 -65 83 -118 158 -118 167 0 33 130 223 190
278 100 92 244 80 278 -22 16 -51 6 -99 -28 -136 -38 -40 -105 -43 -140 -5
-13 14 -27 25 -32 25 -18 0 -7 -30 18 -49 40 -31 123 -29 162 4 61 51 77 126
42 195 -23 45 -60 73 -115 89 -48 13 -51 13 -90 -2z m-780 -45 c11 -7 76 -90
240 -307 54 -71 133 -175 175 -230 42 -55 105 -138 141 -185 35 -47 74 -96 86
-110 28 -30 25 -44 -9 -48 -21 -3 -35 9 -84 75 -32 43 -62 80 -65 83 -3 3 -24
30 -46 60 -23 30 -77 101 -120 157 -267 347 -374 493 -368 502 7 13 35 14 50
3z m191 0 c6 -4 84 -104 174 -222 90 -118 218 -285 285 -370 230 -298 226
-290 182 -290 -31 0 -37 7 -306 355 -128 165 -240 309 -249 320 -77 91 -152
196 -147 205 7 12 45 13 61 2z"/>
<path d="M3157 1213 c-17 -16 -2 -22 61 -25 l67 -3 0 -445 0 -445 -61 3 c-37
2 -64 -1 -68 -7 -5 -8 101 -11 367 -11 404 0 432 3 518 56 60 37 82 76 87 159
6 96 -19 153 -85 191 -37 22 -52 26 -93 21 -98 -12 -159 -82 -126 -145 15 -29
43 -48 54 -37 3 3 -4 12 -16 21 -32 22 -30 76 5 103 55 44 127 39 178 -12 27
-27 33 -42 39 -100 10 -85 -4 -127 -55 -170 -63 -55 -129 -69 -308 -65 l-154
3 1 433 c1 238 4 437 7 442 4 6 42 10 86 10 64 0 79 3 79 15 0 13 -39 15 -288
15 -159 0 -292 -3 -295 -7z m218 -473 c0 -480 3 -447 -45 -441 -12 1 -14 873
-3 885 4 4 16 6 28 4 20 -3 20 -8 20 -448z m149 444 c14 -5 16 -54 16 -444 0
-380 -2 -439 -15 -444 -8 -3 -22 -3 -30 0 -13 5 -15 64 -15 443 0 241 3 441 7
444 8 9 17 9 37 1z"/>
<path d="M4710 1205 c0 -12 14 -15 63 -15 36 0 68 -5 75 -12 18 -18 17 -864 0
-875 -7 -4 -38 -6 -69 -4 -34 1 -60 -2 -63 -8 -5 -8 74 -11 274 -11 200 0 279
3 274 11 -4 6 -30 9 -64 7 -32 -1 -61 0 -64 3 -8 8 -9 867 -1 879 3 6 35 10
71 10 50 0 64 3 64 15 0 13 -38 15 -280 15 -242 0 -280 -2 -280 -15z m221 -22
c0 -5 2 -203 2 -441 2 -446 1 -461 -37 -446 -14 6 -16 49 -16 443 0 241 3 441
7 444 9 9 43 9 44 0z m167 -432 c1 -293 -1 -438 -8 -446 -6 -7 -19 -12 -28
-11 -16 3 -17 37 -20 437 -1 239 0 440 3 447 3 7 15 12 27 10 l23 -3 3 -434z"/>
<path d="M8160 1205 c0 -11 17 -15 73 -17 l72 -3 0 -444 0 -445 -67 3 c-38 1
-69 -2 -73 -8 -4 -8 79 -11 275 -11 200 0 279 3 274 11 -4 6 -31 9 -68 7 l-61
-3 0 445 0 445 68 3 c51 2 67 6 67 17 0 13 -42 15 -280 15 -238 0 -280 -2
-280 -15z m227 -455 c2 -239 -1 -441 -6 -449 -7 -10 -13 -11 -30 -2 -21 12
-21 13 -21 446 0 450 0 447 40 442 13 -2 15 -59 17 -437z m158 -10 l0 -445
-25 0 -25 0 -3 435 c-1 239 0 441 3 448 3 7 15 12 27 10 l23 -3 0 -445z"/>
</g>
</svg>
